# xmcd CD database file
#
# Track frame offsets:
#	150
#	13005
#	31271
#	45640
#	57290
#	78094
#	92175
#	112400
#
# Disc length: 1940 seconds
#
# Revision: 0
# Processed by: cddbd v1.5.2PL0 Copyright (c) Steve Scherf et al.
# Submitted via: CDex 1.51
#
DISCID=60079208
DTITLE=IVAN MARCIO  - HARMONICA SHOW
DYEAR=2009
DGENRE=Blues
TTITLE0=MESSIN´ WITH THE KID
TTITLE1=LOOKING FOR SOMEBODY
TTITLE2=LET´S SHUFFLE BABY
TTITLE3=AIN´T GONNA DO IT
TTITLE4=BLUSEIFICADO SEJA VOSSO NOME
TTITLE5=CRAZY FOR MY BABY
TTITLE6=CROSSROADS
TTITLE7=BLACK NIGHT
EXTD=YEAR: 2009
EXTT0=
EXTT1=
EXTT2=
EXTT3=
EXTT4=
EXTT5=
EXTT6=
EXTT7=
PLAYORDER=
